Title: Þetta er ekkert mál
English title: Larger Than Life
Year: 2006
Plot: Story of Jón Páll Sigmarsson (John Paul), 4-time "World's Strongest Man" winner.

Spoken Languages: Icelandic, English
Not texted 

IMDB Link: http://www.imdb.com/title/tt1047712/






---
MediaInfo information:

General
Complete name                    : Q:XYZThetta er ekkert mal (2006)Thetta er ekkert mal (2006) DVDRip.avi
Format                           : AVI
Format/Info                      : Audio Video Interleave
File size                        : 699 MiB
Duration                         : 1h 43mn
Overall bit rate                 : 943 Kbps
Writing application              : FairUse Wizard - http://fairusewizard.com
Writing library                  : The best and REALLY easy backup tool

Video
ID                               : 0
Format                           : AVC
Format/Info                      : Advanced Video Codec
Format profile                   : Main@L5.1
Format settings, CABAC           : Yes
Format settings, ReFrames        : 2 frames
Codec ID                         : H264
Duration                         : 1h 43mn
Bit rate                         : 805 Kbps
Width                            : 560 pixels
Height                           : 352 pixels
Display aspect ratio             : 1.591
Frame rate                       : 25.000 fps
Resolution                       : 24 bits
Colorimetry                      : 4:2:0
Scan type                        : Progressive
Bits/(Pixel*Frame)               : 0.163
Stream size                      : 597 MiB (85%)
Writing library                  : x264 core 58 svn-736bm
Encoding settings                : cabac=1 / ref=1 / deblock=1:0:0 / analyse=0x1:0x131 / me=hex / subme=5 / brdo=0 / mixed_ref=0 / me_range=16 / chroma_me=1 / trellis=1 / 8x8dct=0 / cqm=0 / deadzone=21,11 / chroma_qp_offset=0 / threads=1 / nr=0 / decimate=1 / mbaff=0 / bframes=2 / b_pyramid=0 / b_adapt=1 / b_bias=0 / direct=1 / wpredb=1 / bime=0 / keyint=250 / keyint_min=25 / scenecut=40 / rc=2pass / bitrate=805 / ratetol=1.0 / rceq='blurCplx^(1-qComp)' / qcomp=0.60 / qpmin=10 / qpmax=51 / qpstep=4 / cplxblur=20.0 / qblur=0.5 / ip_ratio=1.40 / pb_ratio=1.30

Audio
ID                               : 1
Format                           : MPEG Audio
Format version                   : Version 1
Format profile                   : Layer 3
Codec ID                         : 55
Codec ID/Hint                    : MP3
Duration                         : 1h 43mn
Bit rate mode                    : Constant
Bit rate                         : 128 Kbps
Channel(s)                       : 2 channels
Sampling rate                    : 48.0 KHz
Resolution                       : 16 bits
Stream size                      : 94.9 MiB (14%)
Alignment                        : Aligned on interleaves
Interleave, duration             : 40 ms (1.00 video frame)
Interleave, preload duration     : 504 ms
Writing library                  : LAME3.97 
Encoding settings                : -m j -V 4 -q 2 -lowpass 17 -b 128
